PathFileType	4	(X/Y/Z)	/Users/itak/Documents/Research/Walk-IL/dataset/trc/00431_00167.trc
DataRate	CameraRate	NumFrames	NumMarkers	Units	OrigDataRate	OrigDataStartFrame	OrigNumFrames
100.000000	100.000000	4	54	mm	100.000000	252	673
Frame#	Time	RPSI			LPSI			L3			STRN			T10			C7			CLAV			RBAK			LBAK			LSHO			LUPA			LAEL			LAOL			LWTS			LWPS			LFRA			LIFD			LHPS			LHTS			RSHO			RUPA			RAEL			RAOL			RWTS			RWPS			RFRA			RIFD			RHTS			RHPS			RBHD			LFHD			RFHD			LBHD			LHIP			RHIP			RASI			LASI			LKNE			LTHI			LANK			LTIP			LTOE			LMT1			LMT5			LHEE			RKNE			RTHI			RANK			RTIP			RTOE			RMT1			RMT5			RHEE			*53			
		X1	Y1	Z1	X2	Y2	Z2	X3	Y3	Z3	X4	Y4	Z4	X5	Y5	Z5	X6	Y6	Z6	X7	Y7	Z7	X8	Y8	Z8	X9	Y9	Z9	X10	Y10	Z10	X11	Y11	Z11	X12	Y12	Z12	X13	Y13	Z13	X14	Y14	Z14	X15	Y15	Z15	X16	Y16	Z16	X17	Y17	Z17	X18	Y18	Z18	X19	Y19	Z19	X20	Y20	Z20	X21	Y21	Z21	X22	Y22	Z22	X23	Y23	Z23	X24	Y24	Z24	X25	Y25	Z25	X26	Y26	Z26	X27	Y27	Z27	X28	Y28	Z28	X29	Y29	Z29	X30	Y30	Z30	X31	Y31	Z31	X32	Y32	Z32	X33	Y33	Z33	X34	Y34	Z34	X35	Y35	Z35	X36	Y36	Z36	X37	Y37	Z37	X38	Y38	Z38	X39	Y39	Z39	X40	Y40	Z40	X41	Y41	Z41	X42	Y42	Z42	X43	Y43	Z43	X44	Y44	Z44	X45	Y45	Z45	X46	Y46	Z46	X47	Y47	Z47	X48	Y48	Z48	X49	Y49	Z49	X50	Y50	Z50	X51	Y51	Z51	X52	Y52	Z52	X53	Y53	Z53	X54	Y54	Z54	

253	2.52	-642.95703125	962.26953125	-72.40262603759766	-564.3744506835938	957.0136108398438	-192.4712524414062	-602.2845458984375	1062.0791015625	-101.4899673461914	-357.4100646972656	1245.580810546875	28.45256233215332	-613.2037963867188	1184.017333984375	-106.1023406982422	-557.2240600585938	1450.133422851562	-64.37281036376953	-385.4517211914062	1360.388671875	8.197071075439453	-658.091064453125	1332.522583007812	-6.834071636199951	-541.0907592773438	1404.428100585938	-166.7228851318359	-412.5440368652344	1421.281860351562	-188.21484375	-379.5635070800781	1308.405517578125	-286.2199096679688	-331.4077453613281	1108.131958007812	-326.5330505371094	-423.1852111816406	1067.557739257812	-298.3249816894531	-211.3129730224609	954.0420532226562	-229.9320068359375	-222.0848999023438	920.1091918945312	-295.0447082519531	-281.6766662597656	1033.960083007812	-317.444580078125	-140.8858489990234	803.5560913085938	-200.5321960449219	-185.3061065673828	849.8195190429688	-276.8156127929688	-159.2982482910156	880.501708984375	-217.9330139160156	-565.76318359375	1422.518676757812	109.9060211181641	-614.3304443359375	1365.474487304688	174.4630126953125	-626.6619262695312	1085.605346679688	253.4031677246094	-657.6907348632812	1057.245849609375	199.8062744140625	-481.6389465332031	912.1024169921875	280.7882995605469	-561.9133911132812	884.0004272460938	306.9833679199219	-617.622802734375	1029.5244140625	270.8559265136719	-453.6212158203125	758.8770141601562	316.5561828613281	-454.7806091308594	820.177734375	316.3873291015625	-528.464111328125	805.7401123046875	328.2151184082031	-527.5181274414062	1641.542724609375	46.77679443359375	-331.041259765625	1661.2626953125	-16.91415786743164	-398.3864440917969	1658.72119140625	95.47356414794922	-448.5212097167969	1650.22802734375	-113.4499130249023	-378.0687255859375	854.5958862304688	-213.1592712402344	-617.5477905273438	850.741943359375	107.676383972168	-499.2618713378906	894.4085083007812	111.2855224609375	-351.521728515625	895.6758422851562	-94.10337829589844	-287.7691040039062	447.09228515625	-154.2105865478516	-273.0614013671875	604.08740234375	-157.0597076416016	-570.5479125976562	164.9260406494141	-311.6835632324219	-379.5052795410156	327.0702514648438	-218.6766815185547	-424.3795776367188	51.68775939941406	-173.0488586425781	-493.4602966308594	90.52967071533203	-169.8360443115234	-452.6304626464844	86.27112579345703	-272.1311950683594	-630.7517700195312	196.8222503662109	-285.2044982910156	-543.1163940429688	455.1941223144531	66.48970031738281	-570.4097900390625	713.3035278320312	127.0234222412109	-579.4810791015625	44.2855224609375	-3.480173826217651	-544.4483642578125	306.2585144042969	56.24042129516602	-366.5042419433594	48.03850936889648	40.78502655029297	-409.365234375	49.25802993774414	-18.78860282897949	-467.0134582519531	50.88821029663086	70.51778411865234	-623.8768920898438	35.45181274414062	-70.9991455078125	nan	nan	nan	
254	2.53	-638.2235717773438	961.5835571289062	-69.15445709228516	-559.3665161132812	956.0859985351562	-189.1260833740234	-598.3679809570312	1061.636108398438	-98.45520782470703	-353.1560668945312	1245.610595703125	31.12572479248047	-608.897216796875	1183.372314453125	-102.9346466064453	-553.2176513671875	1449.721069335938	-62.00292205810547	-381.3508911132812	1360.299926757812	10.48333549499512	-654.0157470703125	1332.196044921875	-3.998316049575806	-537.3196411132812	1403.630126953125	-164.1842346191406	-408.8737182617188	1420.410522460938	-186.1131744384766	-376.1922302246094	1307.339599609375	-283.9664306640625	-328.0024719238281	1107.013793945312	-324.2067260742188	-418.5108032226562	1065.75146484375	-295.0625610351562	-207.9283294677734	952.8941650390625	-227.6131286621094	-218.7722625732422	918.9749145507812	-292.70751953125	-278.3999633789062	1032.771118164062	-315.1588745117188	-137.6101226806641	802.4313354492188	-198.2517700195312	-181.9649047851562	848.7006225585938	-274.4591369628906	-155.9926452636719	879.363037109375	-215.6184387207031	-561.535400390625	1422.5830078125	112.4094619750977	-610.0287475585938	1365.559204101562	177.1465606689453	-621.8714599609375	1085.717163085938	256.4620361328125	-653.0475463867188	1057.385498046875	202.9360656738281	-477.0900573730469	911.924560546875	283.5595703125	-557.4027709960938	883.994384765625	309.9422912597656	-612.8732299804688	1029.62890625	273.895263671875	-449.3911743164062	758.6022338867188	319.2502746582031	-450.3941650390625	819.9264526367188	319.0848999023438	-524.0987548828125	805.660400390625	331.089111328125	-522.6754150390625	1641.66748046875	48.60804748535156	-326.1392211914062	1660.558959960938	-15.37526226043701	-393.4058837890625	1658.469116210938	97.12910461425781	-443.8522644042969	1649.77587890625	-111.7300415039062	-372.1406555175781	854.8036499023438	-208.8054962158203	-613.4385375976562	850.3493041992188	110.9703521728516	-495.0588989257812	894.0372314453125	115.0328979492188	-346.93310546875	896.0082397460938	-89.75425720214844	-275.9563293457031	449.25146484375	-145.1527252197266	-263.6902160644531	606.3815307617188	-149.7931823730469	-549.6510620117188	156.6401214599609	-298.6087646484375	-364.0692443847656	325.8966369628906	-208.0793609619141	-398.1124877929688	51.07024002075195	-159.4310302734375	-468.888671875	86.86405181884766	-156.4002227783203	-428.1428527832031	83.90986633300781	-258.7802124023438	-611.1637573242188	186.1479949951172	-272.2878112792969	-540.9080810546875	454.6871337890625	68.34843444824219	-566.572265625	712.78369140625	129.8015747070312	-579.4569702148438	44.28360366821289	-3.437177181243896	-542.9889526367188	305.7759399414062	57.36917877197266	-366.5428771972656	47.89850616455078	41.03068923950195	-409.3009338378906	49.200927734375	-18.62722396850586	-467.03515625	50.72311019897461	70.72480010986328	-623.8087768554688	35.59608840942383	-71.00865936279297	nan	nan	nan	
255	2.54	-633.4527587890625	960.8963623046875	-65.93234252929688	-554.3206787109375	955.1782836914062	-185.7698974609375	-594.4950561523438	1061.136474609375	-95.50044250488281	-348.877197265625	1245.588500976562	33.79269790649414	-604.5867919921875	1182.729736328125	-99.80362701416016	-549.1765747070312	1449.281127929688	-59.59621429443359	-377.2167053222656	1360.161865234375	12.7937593460083	-649.9069213867188	1331.844604492188	-1.169652342796326	-533.5070190429688	1402.821411132812	-161.6218872070312	-405.1448974609375	1419.526123046875	-183.9756774902344	-372.7569885253906	1306.243286132812	-281.6557006835938	-324.6040344238281	1105.796630859375	-321.8086242675781	-414.0840759277344	1064.267333984375	-291.7735595703125	-204.8150634765625	951.3192138671875	-225.4453735351562	-215.8191375732422	917.4976196289062	-290.5422973632812	-275.2735595703125	1031.384033203125	-312.8951721191406	-134.8323211669922	800.73388671875	-196.2945098876953	-179.1220550537109	847.1439208984375	-272.3717651367188	-153.0954284667969	877.68798828125	-213.5617523193359	-557.278564453125	1422.578247070312	114.9344787597656	-605.7275390625	1365.565551757812	179.8320159912109	-617.2146606445312	1085.704833984375	259.3506469726562	-648.498046875	1057.437255859375	205.8606719970703	-472.7247619628906	911.5997924804688	286.1849365234375	-553.0911254882812	883.839599609375	312.681396484375	-608.27783203125	1029.608032226562	276.7471313476562	-445.37548828125	758.167724609375	321.7514953613281	-446.2239990234375	819.5059204101562	321.6246337890625	-519.9490356445312	805.4181518554688	333.739013671875	-517.8112182617188	1641.732177734375	50.47380828857422	-321.239990234375	1659.830810546875	-13.8276424407959	-388.4327697753906	1658.195556640625	98.79645538330078	-439.2121276855469	1649.254150390625	-109.9906997680664	-366.2625427246094	854.98095703125	-204.5073699951172	-609.30810546875	849.9564819335938	114.239631652832	-490.8287963867188	893.6466674804688	118.7494735717773	-342.3077087402344	896.3369140625	-85.46355438232422	-264.3658447265625	451.406982421875	-136.2160491943359	-254.6301879882812	608.6226196289062	-142.7202606201172	-528.2464599609375	148.087646484375	-285.401123046875	-348.5243835449219	324.6691589355469	-197.4844207763672	-372.0606079101562	50.64395523071289	-145.2754364013672	-444.2622680664062	83.40958404541016	-142.5690612792969	-403.5443420410156	81.39743041992188	-244.9904022216797	-590.89501953125	175.3459320068359	-259.35693359375	-538.7612915039062	454.1902160644531	70.16450500488281	-562.7210693359375	712.2704467773438	132.5514678955078	-579.4364013671875	44.28311157226562	-3.390641689300537	-541.5781860351562	305.310302734375	58.47555541992188	-366.57666015625	47.77254104614258	41.26747512817383	-409.2373046875	49.15414810180664	-18.46506881713867	-467.0756225585938	50.57053375244141	70.94252777099609	-623.7462768554688	35.74044418334961	-71.01522064208984	nan	nan	nan	
256	2.55	-628.63720703125	960.2093505859375	-62.74823760986328	-549.2222900390625	954.2808227539062	-182.4018859863281	-590.6375122070312	1060.589111328125	-92.61473083496094	-344.578857421875	1245.521484375	36.45935440063477	-600.2736206054688	1182.084838867188	-96.70034790039062	-545.0988159179688	1448.81591796875	-57.14793014526367	-373.0480346679688	1359.983520507812	15.13038635253906	-645.761474609375	1331.472778320312	1.660420298576355	-529.6499633789062	1402.0087890625	-159.0337677001953	-401.3575744628906	1418.637084960938	-181.7971496582031	-369.2586364746094	1305.127075195312	-279.287353515625	-321.22705078125	1104.490112304688	-319.3371887207031	-409.9158325195312	1063.061767578125	-288.4715881347656	-201.9582214355469	949.3385620117188	-223.4266815185547	-213.2248077392578	915.6914672851562	-288.5455017089844	-272.2867126464844	1029.813720703125	-310.6467590332031	-132.5659332275391	798.4718017578125	-194.671630859375	-176.7733154296875	845.162353515625	-270.5520935058594	-150.5870819091797	875.490234375	-211.7601318359375	-552.9908447265625	1422.509643554688	117.4847946166992	-601.4143676757812	1365.505737304688	182.5245208740234	-612.6848754882812	1085.578002929688	262.0768737792969	-644.04150390625	1057.409790039062	208.5942687988281	-468.5457458496094	911.1324462890625	288.6688232421875	-548.97900390625	883.5396728515625	315.2026977539062	-603.8341064453125	1029.466918945312	279.4191284179688	-441.5709838867188	757.5794677734375	324.0582580566406	-442.268310546875	818.9209594726562	324.0049438476562	-516.01171875	805.0155029296875	336.1651306152344	-512.9200439453125	1641.73974609375	52.3806037902832	-316.3505859375	1659.080200195312	-12.26058673858643	-383.4705505371094	1657.900512695312	100.4825057983398	-434.5978088378906	1648.665893554688	-108.2164993286133	-360.4185485839844	855.1156005859375	-200.263671875	-605.154052734375	849.5662231445312	117.4748306274414	-486.5745849609375	893.2401123046875	122.4321212768555	-337.6208190917969	896.6676635742188	-81.22524261474609	-253.0086517333984	453.5377807617188	-127.3978118896484	-245.8675231933594	610.7918090820312	-135.8287200927734	-506.336181640625	139.3910064697266	-272.0447387695312	-332.9051818847656	323.4027099609375	-186.8857269287109	-346.2461547851562	50.45944595336914	-130.6084442138672	-419.6560668945312	80.20159912109375	-128.3652191162109	-378.8563537597656	78.80168914794922	-230.7773284912109	-570.0028686523438	164.5077972412109	-246.383544921875	-536.6809692382812	453.705810546875	71.92763519287109	-558.86962890625	711.7632446289062	135.2682952880859	-579.4205932617188	44.28464126586914	-3.340472221374512	-540.2174072265625	304.8641052246094	59.55507659912109	-366.6035766601562	47.65734481811523	41.49186706542969	-409.1771850585938	49.11854934692383	-18.30155563354492	-467.1323547363281	50.42416763305664	71.16716766357422	-623.689453125	35.88216400146484	-71.01949310302734	nan	nan	nan	
